<?xml version="1.0" encoding="utf-8"?>
<!-- Generator: Adobe Illustrator 24.2.3, SVG Export Plug-In . SVG Version: 6.00 Build 0)  -->
<svg version="1.1" id="Livello_1" xmlns="http://www.w3.org/2000/svg" xmlns:xlink="http://www.w3.org/1999/xlink" x="0px" y="0px"
	 viewBox="0 0 118 18" style="enable-background:new 0 0 118 18;" xml:space="preserve">
<style type="text/css">
	.st0{fill:#FFFFFF;}
</style>
<g>
	<path class="st0" d="M11.4,0v7.1H3.5V0H0v18h3.5v-7.6h7.9V18H15V0H11.4z M26,0v18h12v-3.3h-8.4v-4.2h8.2V7.2h-8.2V3.3H38V0H26z
		 M49,0v18h10v-3.4h-6.7V0H49z M90,18h3V0h-3V18z"/>
	<path class="st0" d="M75.2,14.7c1.4,0,2.2-0.8,2.2-2.1c0-1.1-0.8-2.1-2.2-2.1h-4.6v4.2C70.6,14.7,75.2,14.7,75.2,14.7z M75.1,7.2
		c1.2,0,2-0.8,2-2c0-1.1-0.8-2-2-2h-4.5v4C70.6,7.2,75.1,7.2,75.1,7.2z M67,0h8.8c3.2,0,4.8,2.2,4.8,4.6c0,2.3-1.3,3.8-2.9,4.1
		C79.6,9,81,10.9,81,13.1c0,2.7-1.7,4.9-4.9,4.9H67V0z"/>
	<path class="st0" d="M104,14.9l8.7-11.5H104V0h13.8v3.1l-8.7,11.6h8.9V18h-14V14.9z"/>
</g>
</svg>
